<?xml version="1.0" encoding="UTF-8"?>
<svg id="Capa_2" data-name="Capa 2" xmlns="http://www.w3.org/2000/svg" viewBox="0 0 866.92 875.28">
  <defs>
    <style>
      .cls-1 {
        fill: #fff;
      }
    </style>
  </defs>
  <g id="Capa_1-2" data-name="Capa 1">
    <path id="iso" class="cls-1" d="M561.45,874.83c9.51.25,46.3-1.23,102.45-.98,67.29.3,148.76,2.29,203.01.98V0h-298.87l-134.51,176.81L299.53,0H0v874.83h257.96c3.86-1.65,6.72-3.38,8.58-4.62,3.1-2.07,3.96-3.14,7.21-5.26,2.76-1.8,4.04-2.27,7.97-4.29,3.98-2.05,7.15-3.92,13.5-7.67,6.82-4.03,6.11-3.87,11.04-6.75,5.77-3.37,6.72-3.58,17.79-9.51,5.39-2.89,9.44-5.13,13.8-7.67,9.17-5.33,11.18-7,12.58-8.28,3.18-2.91,6.73-6.17,8.59-11.35,3.03-8.45-.41-16.56-1.84-19.94-3.64-8.59-10.54-14.84-13.8-17.79-2.46-2.23-3.15-2.5-4.6-4.29-.65-.8-6.33-8.06-5.21-17.18,1.11-9.01,8.19-14.29,12.88-17.79,6.54-4.87,12.78-6.5,21.16-8.59,2.75-.69,7.69-1.81,23.31-3.37,12.2-1.22,20.91-2.09,33.13-2.45,14.86-.44,16.83.42,24.23-1.23,8.08-1.79,16.45-3.78,21.16-11.04,4.03-6.21,3.77-13.8,3.68-16.26,0,0-.17-4.8-1.84-9.82-3.14-9.41-15.55-30.83-34.05-57.66l-59.2-87.11c-.67-.95-1.7-2.36-3.07-3.99-2.52-2.98-3.81-4.48-5.21-4.6-3.03-.27-5.57,4.42-5.83,4.91l-56.44,103.06-34.05-34.97c-.75-.64-1.77-1.34-3.07-1.84-4.34-1.68-8.44.11-9.51.61l-55.52,58.89h-8.28l236.39-403.03,257.43,389.23h-10.12l-79.75-79.75c-.57-.78-1.64-2.01-3.37-2.76-4.3-1.86-8.54.98-8.9,1.23l-19.94,21.47-63.8-99.68c-.11-.59-.57-2.73-2.45-3.99-2.29-1.52-5.75-1.11-8.28,1.23l-53.98,110.11,60.42,73.61c1.02,1.3,2.67,3.29,4.91,5.52,3.97,3.95,6.82,5.68,11.66,9.51,5.91,4.68,7.76,6.52,8.89,7.67,2.83,2.88,4.24,4.32,5.21,6.13,2.71,5.07,1.95,10.33,1.23,15.34-.63,4.38-1.28,8.87-4.29,13.5-3.34,5.14-7.69,7.5-13.8,10.74-3.34,1.77-4.7,2.15-20.86,7.97-9.75,3.51-12.11,4.4-15.34,6.75-2.86,2.08-6.96,5.06-9.51,10.43-5.34,11.26.89,23.05,1.84,24.84,2.18,4.13,4.68,6.57,7.67,9.51,27.88,27.34,25.48,25.33,29.14,28.53,12.36,10.81,12.69,10.13,22.7,19.32,9.62,8.84,15.08,14.77,17.79,17.79,7.97,8.89,12.78,16.6,13.49,16.62Z"/>
  </g>
</svg>