<?xml version="1.0" encoding="UTF-8"?>
<svg id="Capa_2" data-name="Capa 2" xmlns="http://www.w3.org/2000/svg" viewBox="0 0 1193.81 1112.55">
  <defs>
    <style>
      .cls-1 {
        fill: #fff;
      }
    </style>
  </defs>
  <g id="Capa_1-2" data-name="Capa 1">
    <path id="iso" class="cls-1" d="M689.1,874.83c9.51.25,46.3-1.23,102.45-.98,67.29.3,148.76,2.29,203.01.98V0h-298.87l-134.51,176.81L427.18,0H127.65v874.83h257.96c3.86-1.65,6.72-3.38,8.58-4.62,3.1-2.07,3.96-3.14,7.21-5.26,2.76-1.8,4.04-2.27,7.97-4.29,3.98-2.05,7.15-3.92,13.5-7.67,6.82-4.03,6.11-3.87,11.04-6.75,5.77-3.37,6.72-3.58,17.79-9.51,5.39-2.89,9.44-5.13,13.8-7.67,9.17-5.33,11.18-7,12.58-8.28,3.18-2.91,6.73-6.17,8.59-11.35,3.03-8.45-.41-16.56-1.84-19.94-3.64-8.59-10.54-14.84-13.8-17.79-2.46-2.23-3.15-2.5-4.6-4.29-.65-.8-6.33-8.06-5.21-17.18,1.11-9.01,8.19-14.29,12.88-17.79,6.54-4.87,12.78-6.5,21.16-8.59,2.75-.69,7.69-1.81,23.31-3.37,12.2-1.22,20.91-2.09,33.13-2.45,14.86-.44,16.83.42,24.23-1.23,8.08-1.79,16.45-3.78,21.16-11.04,4.03-6.21,3.77-13.8,3.68-16.26,0,0-.17-4.8-1.84-9.82-3.14-9.41-15.55-30.83-34.05-57.66l-59.2-87.11c-.67-.95-1.7-2.36-3.07-3.99-2.52-2.98-3.81-4.48-5.21-4.6-3.03-.27-5.57,4.42-5.83,4.91l-56.44,103.06-34.05-34.97c-.75-.64-1.77-1.34-3.07-1.84-4.34-1.68-8.44.11-9.51.61l-55.52,58.89h-8.28l236.39-403.03,257.43,389.23h-10.12l-79.75-79.75c-.57-.78-1.64-2.01-3.37-2.76-4.3-1.86-8.54.98-8.9,1.23l-19.94,21.47-63.8-99.68c-.11-.59-.57-2.73-2.45-3.99-2.29-1.52-5.75-1.11-8.28,1.23l-53.98,110.11,60.42,73.61c1.02,1.3,2.67,3.29,4.91,5.52,3.97,3.95,6.82,5.68,11.66,9.51,5.91,4.68,7.76,6.52,8.89,7.67,2.83,2.88,4.24,4.32,5.21,6.13,2.71,5.07,1.95,10.33,1.23,15.34-.63,4.38-1.28,8.87-4.29,13.5-3.34,5.14-7.69,7.5-13.8,10.74-3.34,1.77-4.7,2.15-20.86,7.97-9.75,3.51-12.11,4.4-15.34,6.75-2.86,2.08-6.96,5.06-9.51,10.43-5.34,11.26.89,23.05,1.84,24.84,2.18,4.13,4.68,6.57,7.67,9.51,27.88,27.34,25.48,25.33,29.14,28.53,12.36,10.81,12.69,10.13,22.7,19.32,9.62,8.84,15.08,14.77,17.79,17.79,7.97,8.89,12.78,16.6,13.49,16.62Z"/>
    <g>
      <path class="cls-1" d="M118.26,992.94h-58.36c-1.13-.05-2.82-.09-4.86,0-18.41.82-31.27,10.82-33.56,12.64-4.24,3.39-12.02,10.6-17.02,22.37-4.78,11.26-4.58,20.97-4.38,27.23.17,5.38.52,13.73,4.86,23.34.89,1.98,3.7,7.87,9.24,14.1,6.19,6.96,12.46,10.6,16.05,12.64,5.97,3.4,10.19,4.59,11.19,4.86,3.69,1.01,6.9,1.35,9.24,1.46h67.6v-20.43h-52.04c-3.2.07-7.09.07-13.13,0-1.14-.01-23.01-4.49-30.15-24.8-5.27-15,1.28-27.97,2.43-30.15,5.38-10.21,13.92-14.99,17.02-16.54,5.43-2.7,10.41-3.58,13.62-3.89h62.25v-22.86Z"/>
      <polygon class="cls-1" points="128.96 1111.6 189.26 992.88 249.57 1111.6 225.74 1111.6 189.26 1041.57 153.76 1111.6 128.96 1111.6"/>
      <path class="cls-1" d="M341.97,1026.49q4.01.29,10.54.29c2.95,0,3.89-.07,9.44-.23,1.09-.55.97-1.58.88-3.04-.93-15.22-13.16-25.09-14.06-25.71-2.35-1.62-6.39-3.99-12.16-5.35h-58.85c-7.25,0-12.02,4.73-14.59,6.81-1.96,1.59-6.74,5.56-9.73,12.64-2.53,5.99-2.48,11.15-2.43,13.62.13,6.76,2.16,11.66,3.4,14.59,2.41,5.67,5,11.77,11.19,15.08,3.52,1.89,7.54,2.51,10.21,2.92,3.15.49,5.83.54,7.78.49h45.71c1.62,0,5.94,1.65,9.24,5.84,1.29,1.63,4.38,6.19,3.4,12.16-.74,4.54-3.45,7.47-4.86,8.75-3.26,2.96-6.85,3.68-8.27,3.89h-44.26c-6.53,0-9.59-6.74-10.21-7.78-1.88-3.16-2.34-6.27-2.43-8.27h-20.93c-.14,1.56-.23,3.74,0,6.32.23,2.62,1.18,12.04,8.28,20.43,8.49,10.04,20.02,11.8,22.86,12.16h53.5c13.56,0,23.21-14.58,26.26-27.23,3.13-12.96-1.98-23.45-3.4-26.26-1.58-3.13-7.79-14.34-20.91-18.97-4.1-1.44-7.73-1.84-10.21-1.95h-39.88c-1.59-.03-3.45,0-7.29,0-4.65,0-8.07-6.35-7.29-11.67.59-4.06,3.97-9.15,8.11-10.42l43.93-.13c3.27,0,6.17-.09,9.44.38,1.87.27,3.44,2.43,5.15,4.34,2.11,2.35.51,6.18,2.43,6.32Z"/>
      <polygon class="cls-1" points="362.91 1111.63 423.21 992.91 483.51 1111.63 459.68 1111.63 423.21 1041.6 387.71 1111.63 362.91 1111.63"/>
      <polygon class="cls-1" points="576.74 1111.7 576.74 993.59 635.92 1038.71 695.09 993.59 695.09 1111.7 674.38 1111.7 674.38 1036.99 635.92 1065.84 598.69 1037.97 598.69 1111.7 576.74 1111.7"/>
      <path class="cls-1" d="M711.61,993.59h21.7v57.94c0,1.8.02,6.12.54,9.01.73,4.09,1.4,5.35,2.42,7.51,1.06,2.23,3.49,7.25,8.63,12.08,7.49,7.05,15.77,9.06,18.49,9.62,8.01,1.64,14.65.3,18.25-.74,3.11-.9,9.04-3.03,14.79-8.14,1.26-1.12,7.35-6.67,10.85-16.27,1.36-3.74,1.95-7.03,2.22-9.37v-61.64h20.96v60.41c.1,1.48.17,3.61,0,6.16-.82,12.45-6.42,21.34-8.88,25.15-2.47,3.82-9.54,13.78-22.68,20.46-8.33,4.24-15.59,5.38-19.23,5.92-4.18.62-11.83,1.69-21.2-.25-14.88-3.07-24.31-11.7-27.86-15.04-4.88-4.59-11.97-12.74-16.03-24.66-1.37-4.02-2.07-7.53-2.47-10.11l-.49-68.05Z"/>
      <polygon class="cls-1" points="847.1 1111.7 847.1 993.59 944.49 1068.32 944.49 993.59 966.31 993.59 966.31 1111.7 868.91 1037.93 868.91 1111.7 847.1 1111.7"/>
      <polygon class="cls-1" points="976.69 1111.6 1037 992.88 1097.3 1111.6 1073.47 1111.6 1037 1041.57 1001.49 1111.6 976.69 1111.6"/>
      <path class="cls-1" d="M1074.53,992.88c0,1.45,48.81,63.68,48.81,63.68v55.04h21.66v-55.65l48.81-63.07h-27.45l-32.18,41.11-31.88-41.11h-27.76Z"/>
    </g>
  </g>
</svg>